dataset
version=1
nRows=16
nColumns=39
inDegrees=no
endheader
time	sternoclavicular_r2	sternoclavicular_r3	unrotscap_r3	unrotscap_r2	acromioclavicular_r2	acromioclavicular_r3	acromioclavicular_r1	unrothum_r1	unrothum_r3	unrothum_r2	elv_angle	shoulder_elv	shoulder1_r2	shoulder_rot	elbow_flexion	pro_sup	deviation	flexion	cmc_abduction	cmc_flexion	mp_flexion	ip_flexion	mcp2_flexion	mcp2_abduction	pm2_flexion	md2_flexion	mcp3_flexion	mcp3_abduction	pm3_flexion	md3_flexion	mcp4_flexion	mcp4_abduction	pm4_flexion	md4_flexion	mcp5_flexion	mcp5_abduction	pm5_flexion	md5_flexion
0.980000	-0.042248	-0.234708	0.070586	0.216834	0.194072	0.128661	-0.021240	-0.050864	0.192034	0.230006	0.253918	0.027437	0.146525	0.146525	1.501493	1.221683	0.000000	0.000000	0.000000	0.000000	0.000000	0.000000	0.000000	0.000000	0.000000	0.000000	0.000000	0.000000	0.000000	0.000000	0.000000	0.000000	0.000000	0.000000	0.000000	0.000000	0.000000	0.000000
0.985000	-0.042391	-0.234529	0.070470	0.217013	0.194170	0.129117	-0.020944	-0.050609	0.192587	0.229989	0.254111	0.027437	0.146525	0.146525	1.501633	1.222183	0.000000	0.000000	0.000000	0.000000	0.000000	0.000000	0.000000	0.000000	0.000000	0.000000	0.000000	0.000000	0.000000	0.000000	0.000000	0.000000	0.000000	0.000000	0.000000	0.000000	0.000000	0.000000
0.990000	-0.042534	-0.234354	0.070359	0.217180	0.194253	0.129576	-0.020653	-0.050382	0.193147	0.229966	0.254294	0.027437	0.146525	0.146525	1.501910	1.222668	0.000000	0.000000	0.000000	0.000000	0.000000	0.000000	0.000000	0.000000	0.000000	0.000000	0.000000	0.000000	0.000000	0.000000	0.000000	0.000000	0.000000	0.000000	0.000000	0.000000	0.000000	0.000000
0.995000	-0.042675	-0.234181	0.070252	0.217333	0.194323	0.130038	-0.020366	-0.050184	0.193715	0.229937	0.254468	0.027437	0.146525	0.146525	1.502331	1.223136	0.000000	0.000000	0.000000	0.000000	0.000000	0.000000	0.000000	0.000000	0.000000	0.000000	0.000000	0.000000	0.000000	0.000000	0.000000	0.000000	0.000000	0.000000	0.000000	0.000000	0.000000	0.000000
1.000000	-0.042816	-0.234012	0.070151	0.217473	0.194378	0.130504	-0.020084	-0.050016	0.194292	0.229903	0.254631	0.027437	0.146525	0.146525	1.502898	1.223590	0.000000	0.000000	0.000000	0.000000	0.000000	0.000000	0.000000	0.000000	0.000000	0.000000	0.000000	0.000000	0.000000	0.000000	0.000000	0.000000	0.000000	0.000000	0.000000	0.000000	0.000000	0.000000
1.005000	-0.042956	-0.233846	0.070053	0.217599	0.194419	0.130973	-0.019806	-0.049879	0.194876	0.229863	0.254783	0.027437	0.146525	0.146525	1.503616	1.224028	0.000000	0.000000	0.000000	0.000000	0.000000	0.000000	0.000000	0.000000	0.000000	0.000000	0.000000	0.000000	0.000000	0.000000	0.000000	0.000000	0.000000	0.000000	0.000000	0.000000	0.000000	0.000000
1.010000	-0.043095	-0.233682	0.069961	0.217710	0.194443	0.131446	-0.019532	-0.049773	0.195469	0.229815	0.254924	0.027437	0.146525	0.146525	1.504489	1.224450	0.000000	0.000000	0.000000	0.000000	0.000000	0.000000	0.000000	0.000000	0.000000	0.000000	0.000000	0.000000	0.000000	0.000000	0.000000	0.000000	0.000000	0.000000	0.000000	0.000000	0.000000	0.000000
1.015000	-0.043233	-0.233521	0.069873	0.217807	0.194451	0.131922	-0.019262	-0.049699	0.196071	0.229761	0.255053	0.027437	0.146525	0.146525	1.505520	1.224857	0.000000	0.000000	0.000000	0.000000	0.000000	0.000000	0.000000	0.000000	0.000000	0.000000	0.000000	0.000000	0.000000	0.000000	0.000000	0.000000	0.000000	0.000000	0.000000	0.000000	0.000000	0.000000
1.020000	-0.043370	-0.233363	0.069789	0.217887	0.194443	0.132403	-0.018996	-0.049657	0.196682	0.229700	0.255171	0.027437	0.146525	0.146525	1.506714	1.225249	0.000000	0.000000	0.000000	0.000000	0.000000	0.000000	0.000000	0.000000	0.000000	0.000000	0.000000	0.000000	0.000000	0.000000	0.000000	0.000000	0.000000	0.000000	0.000000	0.000000	0.000000	0.000000
1.025000	-0.043506	-0.233208	0.069709	0.217952	0.194417	0.132887	-0.018734	-0.049647	0.197303	0.229631	0.255276	0.027437	0.146525	0.146525	1.508073	1.225626	0.000000	0.000000	0.000000	0.000000	0.000000	0.000000	0.000000	0.000000	0.000000	0.000000	0.000000	0.000000	0.000000	0.000000	0.000000	0.000000	0.000000	0.000000	0.000000	0.000000	0.000000	0.000000
1.030000	-0.043641	-0.233055	0.069634	0.218000	0.194374	0.133376	-0.018475	-0.049671	0.197933	0.229553	0.255368	0.027437	0.146525	0.146525	1.509602	1.225988	0.000000	0.000000	0.000000	0.000000	0.000000	0.000000	0.000000	0.000000	0.000000	0.000000	0.000000	0.000000	0.000000	0.000000	0.000000	0.000000	0.000000	0.000000	0.000000	0.000000	0.000000	0.000000
1.035000	-0.043776	-0.232905	0.069562	0.218032	0.194313	0.133869	-0.018219	-0.049727	0.198572	0.229467	0.255447	0.027437	0.146525	0.146525	1.511301	1.226335	0.000000	0.000000	0.000000	0.000000	0.000000	0.000000	0.000000	0.000000	0.000000	0.000000	0.000000	0.000000	0.000000	0.000000	0.000000	0.000000	0.000000	0.000000	0.000000	0.000000	0.000000	0.000000
1.040000	-0.043909	-0.232758	0.069494	0.218046	0.194233	0.134367	-0.017966	-0.049816	0.199221	0.229372	0.255513	0.027437	0.146525	0.146525	1.513176	1.226668	0.000000	0.000000	0.000000	0.000000	0.000000	0.000000	0.000000	0.000000	0.000000	0.000000	0.000000	0.000000	0.000000	0.000000	0.000000	0.000000	0.000000	0.000000	0.000000	0.000000	0.000000	0.000000
1.045000	-0.044042	-0.232613	0.069431	0.218042	0.194133	0.134870	-0.017716	-0.049938	0.199880	0.229268	0.255564	0.027437	0.146525	0.146525	1.515227	1.226987	0.000000	0.000000	0.000000	0.000000	0.000000	0.000000	0.000000	0.000000	0.000000	0.000000	0.000000	0.000000	0.000000	0.000000	0.000000	0.000000	0.000000	0.000000	0.000000	0.000000	0.000000	0.000000
1.050000	-0.044174	-0.232471	0.069371	0.218021	0.194015	0.135378	-0.017470	-0.050093	0.200549	0.229154	0.255601	0.027437	0.146525	0.146525	1.517458	1.227291	0.000000	0.000000	0.000000	0.000000	0.000000	0.000000	0.000000	0.000000	0.000000	0.000000	0.000000	0.000000	0.000000	0.000000	0.000000	0.000000	0.000000	0.000000	0.000000	0.000000	0.000000	0.000000
1.055000	-0.044305	-0.232332	0.069314	0.217980	0.193876	0.135892	-0.017226	-0.050281	0.201229	0.229029	0.255623	0.027437	0.146525	0.146525	1.519871	1.227582	0.000000	0.000000	0.000000	0.000000	0.000000	0.000000	0.000000	0.000000	0.000000	0.000000	0.000000	0.000000	0.000000	0.000000	0.000000	0.000000	0.000000	0.000000	0.000000	0.000000	0.000000	0.000000
